{"title":"The.Deadly.Affair.1967.1080p.BluRay.H264.AAC-","magnet":"magnet:?xt=urn:btih:4c3018f9f0b05b85e96e676c6e6ba608cb975b22&dn=The.Deadly.Affair.1967.1080p.BluRay.H264.AAC-&tr=udp%3A%2F%2Ftracker.leechers-paradise.org%3A6969&tr=udp%3A%2F%2Fzer0day.ch%3A1337&tr=udp%3A%2F%2Fopen.demonii.com%3A1337&tr=udp%3A%2F%2Ftracker.coppersurfer.tk%3A6969&tr=udp%3A%2F%2Fexodus.desync.com%3A6969","uploader":"mocioni","categoryP":"video","categoryS":"hd___movies","size":"2189111652","seeders":"0","leechers":"0","description":"Video\r\nID : 1\r\nFormat : AVC\r\nFormat/Info : Advanced Video Codec\r\nFormat profile : High@L4.1\r\nFormat settings : CABAC / 4 Ref Frames\r\nFormat settings, CABAC : Yes\r\nFormat settings, ReFrames : 4 frames\r\nCodec ID : avc1\r\nCodec ID/Info : Advanced Video Coding\r\nDuration : 1 h 46 min\r\nBit rate : 2 500 kb/s\r\nWidth : 1 920 pixels\r\nHeight : 1 040 pixels\r\nDisplay aspect ratio : 1.85:1\r\nFrame rate mode : Constant\r\nFrame rate : 23.976 (23976/1000) FPS\r\nColor space : YUV\r\nChroma subsampling : 4:2:0\r\nBit depth : 8 bits\r\nScan type : Progressive\r\nBits/(Pixel*Frame) : 0.052\r\nStream size : 1.87 GiB (92%)\r\nWriting library : x264 core 152 r2851M ba24899\r\nEncoding settings : cabac=1 / ref=4 / deblock=1:-1:-1 / analyse=0x3:0x113 / me=umh / subme=9 / psy=1 / psy_rd=1.00:0.15 / mixed_ref=1 / me_range=24 / chroma_me=1 / trellis=2 / 8x8dct=1 / cqm=0 / deadzone=21,11 / fast_pskip=1 / chroma_qp_offset=-3 / threads=32 / lookahead_threads=4 / sliced_threads=0 / nr=0 / decimate=1 / interlaced=0 / bluray_compat=0 / constrained_intra=0 / bframes=3 / b_pyramid=2 / b_adapt=2 / b_bias=0 / direct=3 / weightb=1 / open_gop=0 / weightp=2 / keyint=250 / keyint_min=25 / scenecut=40 / intra_refresh=0 / rc_lookahead=50 / rc=2pass / mbtree=1 / bitrate=2500 / ratetol=1.0 / qcomp=0.60 / qpmin=0 / qpmax=69 / qpstep=4 / cplxblur=20.0 / qblur=0.5 / vbv_maxrate=31250 / vbv_bufsize=31250 / nal_hrd=none / filler=0 / ip_ratio=1.40 / aq=3:1.00\r\nEncoded date : UTC 2018-08-26 00:06:15\r\nTagged date : UTC 2018-08-26 00:06:15\r\n\r\nAudio\r\nID : 2\r\nFormat : AAC\r\nFormat/Info : Advanced Audio Codec\r\nFormat profile : LC\r\nCodec ID : mp4a-40-2\r\nDuration : 1 h 46 min\r\nBit rate mode : Constant\r\nBit rate : 224 kb/s\r\nChannel(s) : 2 channels\r\nChannel(s)_Original : 1 channel\r\nChannel positions : Front: C\r\nSampling rate : 48.0 kHz\r\nFrame rate : 46.875 FPS (1024 SPF)\r\nCompression mode : Lossy\r\nStream size : 171 MiB (8%)\r\nLanguage : English\r\nDefault : Yes\r\nAlternate group : 1\r\nEncoded date : UTC 2018-08-26 00:06:15\r\nTagged date : UTC 2018-08-26 00:06:15","last_updated":"2018-08-26T12:01:37.734Z","parsed":{"xt":"urn:btih:4c3018f9f0b05b85e96e676c6e6ba608cb975b22","dn":"The.Deadly.Affair.1967.1080p.BluRay.H264.AAC-","tr":["udp://exodus.desync.com:6969","udp://open.demonii.com:1337","udp://tracker.coppersurfer.tk:6969","udp://tracker.leechers-paradise.org:6969","udp://zer0day.ch:1337"],"infoHash":"4c3018f9f0b05b85e96e676c6e6ba608cb975b22","infoHashBuffer":{"type":"Buffer","data":[76,48,24,249,240,176,91,133,233,110,103,108,110,107,166,8,203,151,91,34]},"name":"The.Deadly.Affair.1967.1080p.BluRay.H264.AAC-","announce":["udp://exodus.desync.com:6969","udp://open.demonii.com:1337","udp://tracker.coppersurfer.tk:6969","udp://tracker.leechers-paradise.org:6969","udp://zer0day.ch:1337"],"urlList":[]}}